_________________________  Visit us at _________________________
  
http://p2pdl.com  ____________________________  http://p2pdl.com

 
http://www.shotpix.com/images/31093357852877970134.jpg


Armin Van Buuren - Waiting For The Night (Ft. Fiora) M4A+MP4 (1080p) x264 [VX] [P2PDL]


                          1080p Full HD MP4 Video
                                     +
                           128 Kbps/VBR M4A Audio

General
Format                         : MPEG-4
Format profile                 : Base Media / Version 2
Codec ID                       : mp42
File size                      : 37.3 MiB
Duration                       : 3mn 17s
Overall bit rate mode          : Variable
Overall bit rate               : 1 583 Kbps

Video
Format                         : AVC
Width                          : 1 920 pixels
Height                         : 1 080 pixels
Display aspect ratio           : 16:9
Frame rate mode                : Constant
Frame rate                     : 25.000 fps
Color space                    : YUV
Chroma subsampling             : 4:2:0
Bit depth                      : 8 bits
Scan type                      : Progressive
Bits/(Pixel*Frame)             : 0.028
Stream size                    : 34.3 MiB (92%)
Writing library                : x264 core 129

Audio
Format                         : AAC
Duration                       : 3mn 17s
Bit rate mode                  : Variable
Bit rate                       : 123 Kbps
Channel(s)                     : 2 channels
Channel positions              : Front: L R
Sampling rate                  : 48.0 KHz
Stream size                    : 2.90 MiB (8%)

Subtitles                      : No

Screens:
 
http://www.shotpix.com/images/63312229097720285102.jpg 
http://www.shotpix.com/images/26203429547426855351.jpg

Thumbs:
 
http://www.shotpix.com/images/55308221747768130144.jpg

------------------------------------------------------------------------

Notes:

* Recommended to use latest version VLC Media Player.
* Install shark007 codecs in case of any kind of problem in playback (For non-VLC Media Player users).
* Alternatively, install Core AVC codecs, the fastest decoder that there is coupled with Community Center Codec Pack and play on Windows Media Player Classic.

Greets to: VYTO, a2zRG, MusiK_KinG, Sheychi, Caveman, Ash968, Neon, Masta, TorDigger and staff members at ExtraTorrent, TPB, H33T, KAT, 1337x, PublicHD, Ahashare, TorrentMafia, Limetorrents, BTScene, P2PDL, and all others

Encoder Notes: Looking For Early Access To Anything You Can Provide DVDScr, R5, DVDRips, BluRay, Direct Audio, Early Music
Releases, Seedboxes, Links, Dedicated Servers anything u can provide, Advance / Promo CDs/DVDs. If You Got anything to
offer contact me at "prg@hush.com".